Coordinates
version=1
nRows=7
nColumns=40
inDegrees=yes

Units are S.I. units (second, meters, Newtons, ...)
If the header above contains a line with 'inDegrees', this indicates whether rotational values are in degrees (yes) or radians (no).

endheader
time	pelvis_tilt	pelvis_list	pelvis_rotation	pelvis_tx	pelvis_ty	pelvis_tz	hip_flexion_r	hip_adduction_r	hip_rotation_r	knee_angle_r	knee_angle_r_beta	ankle_angle_r	subtalar_angle_r	mtp_angle_r	hip_flexion_l	hip_adduction_l	hip_rotation_l	knee_angle_l	knee_angle_l_beta	ankle_angle_l	subtalar_angle_l	mtp_angle_l	lumbar_extension	lumbar_bending	lumbar_rotation	arm_flex_r	arm_add_r	arm_rot_r	elbow_flex_r	pro_sup_r	wrist_flex_r	wrist_dev_r	arm_flex_l	arm_add_l	arm_rot_l	elbow_flex_l	pro_sup_l	wrist_flex_l	wrist_dev_l
      4.72500000	    -20.84396754	      4.88381286	      6.86851482	     -0.31097957	      0.83294872	     -0.98575452	     34.61397351	     -8.58460452	     -3.00194714	     93.64015564	      1.63432903	     -2.37259520	      0.00000000	      0.00000000	     62.10272823	      7.77751618	     -5.68373507	     76.81992757	      1.34076067	     24.39851264	      0.00000000	      0.00000000	      0.05177106	    -10.79682482	    -10.19556636	     89.92881800	     -4.78828845	     40.57108452	     49.50948348	     84.51754069	      0.00000000	      0.00000000	     89.95342738	    -15.75775624	     40.19270202	     57.06253392	     80.86864400	      0.00000000	      0.00000000
      4.73000000	    -20.83284010	      4.84496256	      6.85168022	     -0.31101686	      0.83416394	     -0.98579539	     34.67309572	     -8.48478759	     -2.96045474	     93.70896144	      1.63552992	     -2.38177976	      0.00000000	      0.00000000	     61.97189031	      7.75596764	     -5.67315431	     76.57637528	      1.33650988	     24.33538617	      0.00000000	      0.00000000	      0.02933627	    -10.70870336	    -10.17902716	     89.92860939	     -4.79371239	     40.59474708	     49.51489228	     84.50935929	      0.00000000	      0.00000000	     89.95351498	    -15.77580628	     40.20506543	     57.06937650	     80.89152057	      0.00000000	      0.00000000
      4.73500000	    -20.83684722	      4.79336157	      6.84833850	     -0.31100063	      0.83533070	     -0.98583456	     34.74968801	     -8.39329120	     -2.96184398	     93.78899475	      1.63692676	     -2.36510610	      0.00000000	      0.00000000	     61.84993267	      7.74549327	     -5.58180387	     76.32391969	      1.33210370	     24.24451453	      0.00000000	      0.00000000	      0.05134585	    -10.63752155	    -10.16518379	     89.92857110	     -4.80645014	     40.63264589	     49.50534011	     84.50357209	      0.00000000	      0.00000000	     89.95340921	    -15.76776337	     40.19102458	     57.09176113	     80.91236449	      0.00000000	      0.00000000
      4.74000000	    -20.83104918	      4.78398895	      6.78520223	     -0.31097911	      0.83670087	     -0.98583978	     34.83300497	     -8.30514884	     -2.89918205	     93.83487211	      1.63772747	     -2.36208641	      0.00000000	      0.00000000	     61.69995586	      7.74134577	     -5.50464276	     76.02656691	      1.32691391	     24.11933395	      0.00000000	      0.00000000	      0.03959341	    -10.57105427	    -10.10162211	     89.92832915	     -4.81496117	     40.72838001	     49.46148984	     84.49870611	      0.00000000	      0.00000000	     89.95341845	    -15.79196738	     40.18593110	     57.10589852	     80.94224401	      0.00000000	      0.00000000
      4.74500000	    -20.83101087	      4.72655103	      6.77378035	     -0.31095226	      0.83786559	     -0.98583355	     34.90508909	     -8.17219462	     -2.86949212	     93.88211615	      1.63855204	     -2.36283582	      0.00000000	      0.00000000	     61.57613842	      7.68841508	     -5.49865443	     75.79325834	      1.32284191	     24.03567261	      0.00000000	      0.00000000	      0.05420398	    -10.49013249	    -10.09532959	     89.92810678	     -4.82581755	     40.79935908	     49.42935350	     84.49576324	      0.00000000	      0.00000000	     89.95328328	    -15.78132213	     40.22302064	     57.09539023	     80.96727726	      0.00000000	      0.00000000
      4.75000000	    -20.80216223	      4.69311741	      6.73139727	     -0.31093249	      0.83922443	     -0.98583396	     34.94606279	     -8.07449971	     -2.83826579	     93.95092546	      1.63975298	     -2.35864741	      0.00000000	      0.00000000	     61.42394302	      7.65993554	     -5.43816187	     75.51199388	      1.31793292	     23.90470942	      0.00000000	      0.00000000	      0.03577231	    -10.41263547	    -10.05475921	     89.92832383	     -4.83351408	     40.87908318	     49.40545754	     84.49355463	      0.00000000	      0.00000000	     89.95339389	    -15.80153750	     40.21866931	     57.10925441	     80.99275845	      0.00000000	      0.00000000
      4.75500000	    -20.79183487	      4.66497464	      6.67301485	     -0.31082048	      0.84049400	     -0.98589298	     34.98837491	     -8.00679886	     -2.83402082	     93.98886648	      1.64041518	     -2.34487062	      0.00000000	      0.00000000	     61.29790141	      7.62852959	     -5.39602947	     75.31448330	      1.31448571	     23.82616173	      0.00000000	      0.00000000	      0.05057299	    -10.33874642	    -10.01139934	     89.92809185	     -4.82735525	     40.91745396	     49.39207605	     84.49170070	      0.00000000	      0.00000000	     89.95314005	    -15.81642211	     40.23266362	     57.11405545	     81.00929564	      0.00000000	      0.00000000
